<svg width="15" height="15" viewBox="0 0 15 15" fill="none" xmlns="http://www.w3.org/2000/svg">
<g clip-path="url(#clip0_2_148)">
<path d="M4.99999 5.49999H5.99999M8.99999 9.49999H9.99999M9.99999 4.99999L4.99999 9.99999M6.80099 0.789989L5.67199 1.91699C5.48696 2.10235 5.2359 2.20666 4.97399 2.20699H3.19599C2.93396 2.20699 2.68265 2.31108 2.49737 2.49637C2.31208 2.68165 2.20799 2.93296 2.20799 3.19499V4.97299C2.20766 5.2349 2.10335 5.48596 1.91799 5.67099L0.789989 6.80199C0.604778 6.98727 0.500732 7.23852 0.500732 7.50049C0.500732 7.76246 0.604778 8.01371 0.789989 8.19899L1.91999 9.32799C2.01164 9.41966 2.08433 9.52848 2.13391 9.64824C2.1835 9.76801 2.20901 9.89637 2.20899 10.026V11.804C2.20899 12.35 2.65099 12.792 3.19699 12.792H4.97499C5.23699 12.792 5.48799 12.896 5.67299 13.082L6.80299 14.211C6.98827 14.3962 7.23952 14.5002 7.50149 14.5002C7.76346 14.5002 8.01471 14.3962 8.19999 14.211L9.32899 13.081C9.51419 12.896 9.76523 12.7921 10.027 12.792H11.805C12.067 12.792 12.3183 12.6879 12.5036 12.5026C12.6889 12.3173 12.793 12.066 12.793 11.804V10.026C12.793 9.76399 12.897 9.51299 13.083 9.32799L14.212 8.19799C14.3972 8.01271 14.5012 7.76146 14.5012 7.49949C14.5012 7.23751 14.3972 6.98627 14.212 6.80099L13.082 5.67199C12.897 5.48679 12.7931 5.23575 12.793 4.97399V3.19599C12.793 2.93396 12.6889 2.68265 12.5036 2.49737C12.3183 2.31208 12.067 2.20799 11.805 2.20799H10.027C9.76508 2.20766 9.51402 2.10335 9.32899 1.91799L8.19799 0.789989C8.01271 0.604778 7.76146 0.500732 7.49949 0.500732C7.23751 0.500732 6.98627 0.604778 6.80099 0.789989V0.789989Z" stroke="#D39171"/>
</g>
<defs>
<clipPath id="clip0_2_148">
<rect width="15" height="15" fill="white"/>
</clipPath>
</defs>
</svg>
